<svg xmlns="http://www.w3.org/2000/svg" viewBox="0 0 1920 1080">
  <defs>
    <linearGradient id="grad1" x1="0%" y1="0%" x2="100%" y2="100%">
      <stop offset="0%" style="stop-color:#ffebee;stop-opacity:1" />
      <stop offset="100%" style="stop-color:#fce4ec;stop-opacity:1" />
    </linearGradient>
    <linearGradient id="grad2" x1="0%" y1="0%" x2="100%" y2="0%">
      <stop offset="0%" style="stop-color:#e57373;stop-opacity:0.1" />
      <stop offset="50%" style="stop-color:#ef5350;stop-opacity:0.05" />
      <stop offset="100%" style="stop-color:#f44336;stop-opacity:0.1" />
    </linearGradient>
  </defs>
  
  <!-- Background -->
  <rect width="1920" height="1080" fill="url(#grad1)"/>
  
  <!-- Medical Cross Pattern -->
  <g opacity="0.1">
    <circle cx="200" cy="150" r="80" fill="#e57373"/>
    <rect x="175" y="100" width="50" height="100" fill="white"/>
    <rect x="150" y="125" width="100" height="50" fill="white"/>
    
    <circle cx="1500" cy="200" r="60" fill="#ef5350"/>
    <rect x="1480" y="165" width="40" height="70" fill="white"/>
    <rect x="1460" y="180" width="80" height="40" fill="white"/>
    
    <circle cx="300" cy="800" r="70" fill="#f44336"/>
    <rect x="280" y="755" width="40" height="90" fill="white"/>
    <rect x="260" y="775" width="80" height="50" fill="white"/>
    
    <circle cx="1600" cy="900" r="90" fill="#e57373"/>
    <rect x="1575" y="845" width="50" height="110" fill="white"/>
    <rect x="1550" y="875" width="100" height="50" fill="white"/>
  </g>
  
  <!-- Blood Drop Shapes -->
  <g opacity="0.08">
    <path d="M100,400 C100,350 150,300 200,300 C250,300 300,350 300,400 C300,450 250,500 200,500 C150,500 100,450 100,400 Z" fill="#d32f2f"/>
    <path d="M1400,600 C1400,570 1430,540 1460,540 C1490,540 1520,570 1520,600 C1520,630 1490,660 1460,660 C1430,660 1400,630 1400,600 Z" fill="#c62828"/>
    <path d="M800,200 C800,180 820,160 840,160 C860,160 880,180 880,200 C880,220 860,240 840,240 C820,240 800,220 800,200 Z" fill="#b71c1c"/>
    <path d="M500,900 C500,870 520,840 540,840 C560,840 580,870 580,900 C580,930 560,960 540,960 C520,960 500,930 500,900 Z" fill="#d32f2f"/>
  </g>
  
  <!-- Heart Beat Line -->
  <g opacity="0.15">
    <path d="M0,540 L400,540 L450,500 L500,580 L550,480 L600,560 L650,520 L1920,520" 
          stroke="#e57373" stroke-width="3" fill="none"/>
    <path d="M0,300 L300,300 L350,260 L400,340 L450,240 L500,320 L550,280 L1920,280" 
          stroke="#ef5350" stroke-width="2" fill="none"/>
    <path d="M0,780 L500,780 L550,740 L600,820 L650,720 L700,800 L750,760 L1920,760" 
          stroke="#f44336" stroke-width="2" fill="none"/>
  </g>
  
  <!-- Floating Circles -->
  <g opacity="0.1">
    <circle cx="800" cy="400" r="120" fill="url(#grad2)"/>
    <circle cx="1200" cy="600" r="80" fill="url(#grad2)"/>
    <circle cx="400" cy="600" r="100" fill="url(#grad2)"/>
    <circle cx="1100" cy="300" r="60" fill="url(#grad2)"/>
    <circle cx="700" cy="800" r="90" fill="url(#grad2)"/>
  </g>
  
  <!-- DNA Helix Pattern -->
  <g opacity="0.06" transform="translate(1500,0)">
    <path d="M0,0 Q50,100 0,200 Q-50,300 0,400 Q50,500 0,600 Q-50,700 0,800 Q50,900 0,1000" 
          stroke="#e57373" stroke-width="8" fill="none"/>
    <path d="M40,0 Q-10,100 40,200 Q90,300 40,400 Q-10,500 40,600 Q90,700 40,800 Q-10,900 40,1000" 
          stroke="#ef5350" stroke-width="8" fill="none"/>
    
    <!-- DNA base pairs -->
    <g stroke="#f44336" stroke-width="2" opacity="0.5">
      <line x1="0" y1="50" x2="40" y2="50"/>
      <line x1="0" y1="150" x2="40" y2="150"/>
      <line x1="0" y1="250" x2="40" y2="250"/>
      <line x1="0" y1="350" x2="40" y2="350"/>
      <line x1="0" y1="450" x2="40" y2="450"/>
      <line x1="0" y1="550" x2="40" y2="550"/>
      <line x1="0" y1="650" x2="40" y2="650"/>
      <line x1="0" y1="750" x2="40" y2="750"/>
      <line x1="0" y1="850" x2="40" y2="850"/>
      <line x1="0" y1="950" x2="40" y2="950"/>
    </g>
  </g>
</svg>